<svg viewBox="0 0 81.8596 96" xmlns="http://www.w3.org/2000/svg" xmlns:xlink="http://www.w3.org/1999/xlink" width="81.859619" height="96.000000" fill="none" customFrame="#000000">
	<g id="Ghonse">
		<g id="g">
			<path id="svg_81" d="M76.6547 62.2488L76.6547 40.362C76.6547 20.7317 60.7429 4.81985 41.1125 4.81985C21.4822 4.81985 5.2292 20.7025 5.2292 40.3328L3.44064 63.5646L5.57034 63.5256L3.44064 63.5646L2.75348 70.9041L2.75348 86.2701L13.5336 78.5895L25.5759 89.8277L40.2548 78.7065L55.1627 91.319L69.0326 78.7065L76.6645 85.2808L79.9297 78.3605L79.9297 62.1952L76.6547 62.2488Z" fill="rgb(255,255,255)" fill-rule="nonzero" />
			<path id="svg_82" d="M28.8315 52.843C22.8273 53.1111 17.8077 47.9549 18.2365 41.9557C18.3632 40.2061 18.373 40.1623 20.0738 40.5521C24.5477 41.5756 29.0166 42.6331 33.4856 43.6809C34.9428 44.022 36.3951 44.3973 37.8669 44.6946C38.4614 44.8164 38.4712 45.0503 38.325 45.5474C37.0969 49.7142 33.3004 52.6432 28.8315 52.843Z" fill="rgb(94,75,139)" fill-rule="nonzero" />
			<path id="svg_83" d="M66.4205 42.3846C66.4205 47.643 62.6289 52.073 57.7408 52.7407C52.536 53.4522 47.76 50.4258 46.3125 45.5279C46.1566 45.0065 46.2346 44.8115 46.7853 44.6848C51.5418 43.5932 56.2934 42.4674 61.045 41.3563C62.5217 41.0102 64.0178 40.6983 65.4896 40.3133C66.0793 40.1574 66.245 40.4011 66.2986 40.8787C66.3522 41.4586 66.3961 42.0385 66.4205 42.3846Z" fill="rgb(94,75,139)" fill-rule="nonzero" />
			<path id="svg_84" d="M40.9323 0C18.3291 0 0 18.3242 0 40.9274L0 82.2934L0 87.6396C0 90.0763 2.95819 91.2849 4.66878 89.5548L9.6056 84.5498C10.6729 83.4679 12.4176 83.4679 13.4849 84.5498L23.9775 95.1886C25.0447 96.2705 26.7894 96.2705 27.8567 95.1886L38.3493 84.5498C39.4166 83.4679 41.1613 83.4679 42.2286 84.5498L52.7212 95.1886C53.7885 96.2705 55.5332 96.2705 56.6004 95.1886L67.093 84.5498C68.1603 83.4679 69.9001 83.4679 70.9723 84.5498L77.1957 90.8609C78.9063 92.5959 81.8596 91.3824 81.8596 88.9505L81.8596 40.9323C81.8596 18.3242 63.5354 0 40.9323 0ZM76.4793 44.0123L76.4793 73.2628C76.4793 75.6898 73.5406 76.8984 71.83 75.1879L70.6312 73.989C69.5687 72.9266 67.8435 72.9266 66.7762 73.989L56.464 84.3012C55.4016 85.3637 53.6764 85.3637 52.6091 84.3012L41.6048 73.297C40.5424 72.2345 38.8172 72.2345 37.7499 73.297L27.7446 83.3022C26.6822 84.3646 24.957 84.3646 23.8897 83.3022L14.4937 73.9061C13.4313 72.8486 11.7109 72.8486 10.6437 73.9061L10.0345 74.5153C8.31901 76.2357 5.38518 75.0173 5.38518 72.5952L5.38518 41.3173C5.38518 21.6869 21.2971 5.77506 40.9274 5.77506C60.5577 5.77506 76.4696 21.6869 76.4696 41.3173L76.4793 44.0123Z" fill="rgb(32,32,32)" fill-rule="nonzero" />
		</g>
	</g>
</svg>
